<?xml version="1.0" encoding="UTF-8" standalone="no"?>
<!-- Created with Inkscape (http://www.inkscape.org/) -->

<svg
   width="4.1656685mm"
   height="4.2333374mm"
   viewBox="0 0 4.1656685 4.2333374"
   version="1.1"
   id="svg5"
   xml:space="preserve"
   inkscape:export-filename="bitmap.svg"
   inkscape:export-xdpi="96"
   inkscape:export-ydpi="96"
   sodipodi:docname="icon.svg"
   inkscape:version="1.2.1 (9c6d41e410, 2022-07-14)"
   xmlns:inkscape="http://www.inkscape.org/namespaces/inkscape"
   xmlns:sodipodi="http://sodipodi.sourceforge.net/DTD/sodipodi-0.dtd"
   xmlns="http://www.w3.org/2000/svg"
   xmlns:svg="http://www.w3.org/2000/svg"><sodipodi:namedview
     id="namedview7"
     pagecolor="#ffffff"
     bordercolor="#000000"
     borderopacity="0.25"
     inkscape:showpageshadow="2"
     inkscape:pageopacity="0.0"
     inkscape:pagecheckerboard="0"
     inkscape:deskcolor="#d1d1d1"
     inkscape:document-units="mm"
     showgrid="false"
     inkscape:zoom="2.587745"
     inkscape:cx="20.481153"
     inkscape:cy="-22.799774"
     inkscape:window-width="2560"
     inkscape:window-height="1369"
     inkscape:window-x="-8"
     inkscape:window-y="-8"
     inkscape:window-maximized="1"
     inkscape:current-layer="layer1" /><defs
     id="defs2" /><g
     inkscape:label="Layer 1"
     inkscape:groupmode="layer"
     id="layer1"
     transform="translate(-95.831301,-159.25238)"><path
       style="fill:#a5efac;fill-opacity:1;stroke-width:0.264583"
       d="m 97.909503,163.4857 c -0.414174,-0.002 -0.874283,-0.18622 -1.165325,-0.47726 -0.291041,-0.29105 -0.422175,-0.8192 -0.422175,-1.11024 0,-0.29104 0.180612,-0.80563 0.471653,-1.09667 0.291042,-0.29104 0.614169,-0.48996 1.115847,-0.49083 0.390417,-6.8e-4 0.831194,0.18701 1.122236,0.47805 0.291041,0.29104 0.465263,0.81841 0.465263,1.10945 0,0.29104 -0.14639,0.8033 -0.471653,1.10969 -0.329913,0.31078 -0.752512,0.47979 -1.115846,0.47781 z m 0,-0.52916 c 0.255405,0 0.630211,-0.14412 0.805567,-0.35541 0.175355,-0.21129 0.256865,-0.61424 0.208468,-0.8603 -0.0484,-0.24605 -0.23245,-0.59775 -0.487112,-0.75813 -0.337269,-0.21239 -0.802847,-0.14849 -1.140116,0.0639 -0.254662,0.16038 -0.352446,0.44818 -0.400843,0.69423 -0.0484,0.24606 0.02353,0.64901 0.198883,0.8603 0.175356,0.21129 0.559747,0.35541 0.815153,0.35541 z m 0,-0.26459 c -0.300176,0 -0.601884,-0.1898 -0.702449,-0.40828 -0.09895,-0.21497 -0.181954,-0.5156 -0.01885,-0.56848 0.197005,-0.0639 0.212074,-0.004 0.349682,0.20985 0.156306,0.33937 0.516627,0.37132 0.736836,0.0288 0.137608,-0.21407 0.190598,-0.29815 0.346487,-0.2418 0.211507,0.0765 0.08969,0.34711 -0.0093,0.57167 -0.09698,0.2201 -0.402274,0.40828 -0.702448,0.40828 z m -1.898105,-2.39885 c -0.0985,-0.16072 -0.110868,-0.34572 -0.03322,-0.42337 0.07765,-0.0777 0.268167,-0.0627 0.42337,0.0332 0.155202,0.0959 0.282186,0.28644 0.282186,0.42337 0,0.13693 -0.08039,0.23491 -0.237217,0.25646 -0.156825,0.0215 -0.336619,-0.12894 -0.435119,-0.28966 z m 3.452436,0.26541 c -0.191775,0.0835 -0.33613,-0.0519 -0.269984,-0.25036 0.06367,-0.191 0.192372,-0.35354 0.383368,-0.4172 0.198438,-0.0662 0.300302,0.0809 0.240227,0.28122 -0.03811,0.12709 -0.207347,0.32267 -0.353611,0.38634 z m -1.554331,-0.47646 c -0.190426,0 -0.264584,-0.21474 -0.264584,-0.43303 0,-0.21828 0.105805,-0.38358 0.296214,-0.38783 0.141256,-0.003 0.278139,0.17407 0.278139,0.39235 0,0.21829 -0.09153,0.42851 -0.309769,0.42851 z"
       id="path3036"
       sodipodi:nodetypes="sssssssssssssssssssscssssszssszzsscsssssss" /></g></svg>
